HIERARCHY
ROOT Hips
{
 OFFSET 0.000000 0.000000 0.000000
 CHANNELS 6 Xposition Yposition Zposition Yrotation Xrotation Zrotation
 JOINT Chest
 {
  OFFSET 0.000000 11.395451 -0.039534
  CHANNELS 3 Yrotation Xrotation Zrotation
  JOINT Chest2
  {
   OFFSET 0.000000 9.398669 0.071813
   CHANNELS 3 Yrotation Xrotation Zrotation
   JOINT Chest3
   {
    OFFSET 0.000000 8.489801 0.000000
    CHANNELS 3 Yrotation Xrotation Zrotation
    JOINT Chest4
    {
     OFFSET 0.000000 8.489801 0.000000
     CHANNELS 3 Yrotation Xrotation Zrotation
     JOINT Neck
     {
      OFFSET 0.000000 12.404889 0.000000
      CHANNELS 3 Yrotation Xrotation Zrotation
      JOINT Head
      {
       OFFSET 0.000000 8.903270 0.092239
       CHANNELS 3 Yrotation Xrotation Zrotation
       End Site
       {
        OFFSET 0.000000 17.592497 0.007158
       }
      }
     }
     JOINT RightCollar
     {
      OFFSET -3.196775 6.966722 0.000000
      CHANNELS 3 Yrotation Xrotation Zrotation
      JOINT RightShoulder
      {
       OFFSET -15.955896 0.000000 0.000000
       CHANNELS 3 Yrotation Xrotation Zrotation
       JOINT RightElbow
       {
        OFFSET -24.792472 0.000000 0.000000
        CHANNELS 3 Yrotation Xrotation Zrotation
        JOINT RightWrist
        {
         OFFSET -20.900115 0.000000 0.025002
         CHANNELS 3 Yrotation Xrotation Zrotation
         End Site
         {
          OFFSET -16.056692 0.000000 0.000000
         }
        }
       }
      }
     }
     JOINT LeftCollar
     {
      OFFSET 3.196775 6.966722 0.000000
      CHANNELS 3 Yrotation Xrotation Zrotation
      JOINT LeftShoulder
      {
       OFFSET 15.955896 0.000000 0.000000
       CHANNELS 3 Yrotation Xrotation Zrotation
       JOINT LeftElbow
       {
        OFFSET 24.792472 0.000000 0.000000
        CHANNELS 3 Yrotation Xrotation Zrotation
        JOINT LeftWrist
        {
         OFFSET 20.900115 0.000000 0.025002
         CHANNELS 3 Yrotation Xrotation Zrotation
         End Site
         {
          OFFSET 16.056692 0.000000 0.000000
         }
        }
       }
      }
     }
    }
   }
  }
 }
 JOINT RightHip
 {
  OFFSET -9.568995 0.193718 0.019767
  CHANNELS 3 Yrotation Xrotation Zrotation
  JOINT RightKnee
  {
   OFFSET 0.000000 -56.649296 0.015402
   CHANNELS 3 Yrotation Xrotation Zrotation
   JOINT RightAnkle
   {
    OFFSET 0.000000 -41.365147 0.021264
    CHANNELS 3 Yrotation Xrotation Zrotation
    JOINT RightToe
    {
     OFFSET 0.000000 -7.465940 17.672538
     CHANNELS 3 Yrotation Xrotation Zrotation
     End Site
     {
      OFFSET 0.000000 -1.736315 7.837145
     }
    }
   }
  }
 }
 JOINT LeftHip
 {
  OFFSET 9.568995 0.193718 0.019767
  CHANNELS 3 Yrotation Xrotation Zrotation
  JOINT LeftKnee
  {
   OFFSET 0.000000 -56.649296 0.015402
   CHANNELS 3 Yrotation Xrotation Zrotation
   JOINT LeftAnkle
   {
    OFFSET 0.000000 -41.365147 0.021264
    CHANNELS 3 Yrotation Xrotation Zrotation
    JOINT LeftToe
    {
     OFFSET 0.000000 -7.465940 17.672538
     CHANNELS 3 Yrotation Xrotation Zrotation
     End Site
     {
      OFFSET 0.000000 -1.736315 7.837145
     }
    }
   }
  }
 }
}
MOTION
Frames: 17
Frame Time: 0.016667
48.769474 106.672609 178.037113 47.303819 -6.952709 -0.157506 -0.856303 4.355449 0.472128 -0.384730 1.934882 0.217720 -0.384730 1.934882 0.217720 -0.289210 1.451025 0.164493 1.319172 13.423691 -0.752734 2.801672 -11.224639 -1.958392 0.633916 7.276973 8.181383 7.344631 -10.967956 76.560890 2.687605 -2.798187 -0.587563 -3.119001 -0.216577 1.568230 -0.922603 9.442771 -8.614649 -3.955243 -13.333545 -76.452310 -5.150286 -0.952853 -4.785514 4.631194 -1.359335 -1.080411 4.427255 10.989322 -0.357795 -1.217339 0.866638 -0.075186 -3.554913 -6.128980 1.853278 0.000000 0.000000 -0.000000 3.020418 10.543645 2.174696 -0.396976 3.900988 0.378082 3.528724 -7.181541 -1.652108 0.000000 -0.000000 0.000000
48.777996 106.666694 177.967124 47.317467 -6.852507 -0.123897 -0.850376 4.315944 0.449554 -0.381852 1.917372 0.207570 -0.381852 1.917372 0.207570 -0.287013 1.437900 0.156861 1.320558 13.424595 -0.741200 2.799608 -11.223283 -1.937093 0.628890 7.220830 8.156566 7.327397 -10.961742 76.653497 2.695322 -2.775533 -0.591840 -3.133918 -0.215278 1.543238 -0.893406 9.387593 -8.546170 -3.944803 -13.237016 -76.468824 -5.162673 -0.924453 -4.796560 4.597413 -1.353414 -1.097190 4.436720 10.867989 -0.425617 -1.294966 0.871400 -0.088197 -3.505738 -6.122460 1.881820 -0.000000 -0.000000 -0.000000 2.987933 10.420452 2.108748 -0.402400 3.916269 0.358001 3.512517 -7.226741 -1.633807 0.000000 -0.000000 0.000000
48.786518 106.660780 177.897136 47.331171 -6.752313 -0.090271 -0.844451 4.276451 0.426955 -0.378979 1.899866 0.197408 -0.378979 1.899866 0.197408 -0.284822 1.424778 0.149221 1.321947 13.425493 -0.729665 2.797551 -11.221936 -1.915795 0.623858 7.164698 8.131729 7.310127 -10.955544 76.746104 2.703019 -2.752870 -0.596104 -3.148852 -0.213981 1.518256 -0.864291 9.332339 -8.477762 -3.934470 -13.140466 -76.485226 -5.175079 -0.896052 -4.807590 4.563631 -1.347506 -1.113972 4.446292 10.746699 -0.493500 -1.372586 0.876190 -0.101245 -3.456569 -6.115978 1.910383 -0.000000 0.000000 -0.000000 2.955582 10.297224 2.042902 -0.407816 3.931546 0.337914 3.496257 -7.271919 -1.615478 0.000000 0.000000 0.000000
48.795306 106.655743 177.829691 47.341892 -6.659233 -0.063137 -0.839969 4.239592 0.407959 -0.376786 1.883523 0.188865 -0.376786 1.883523 0.188865 -0.283146 1.412527 0.142798 1.324488 13.426422 -0.718802 2.797945 -11.220476 -1.896233 0.621459 7.114463 8.108407 7.295956 -10.951219 76.831589 2.708659 -2.732189 -0.601041 -3.163575 -0.212312 1.494118 -0.837090 9.282799 -8.415342 -3.926126 -13.050312 -76.501088 -5.185875 -0.871187 -4.816479 4.533068 -1.341591 -1.130479 4.455587 10.632846 -0.554244 -1.441416 0.882908 -0.112118 -3.411605 -6.110261 1.936965 0.000000 0.000000 -0.000000 2.930409 10.181441 1.985621 -0.415145 3.946318 0.319355 3.481636 -7.311238 -1.596521 0.000000 0.000000 0.000000
48.804399 106.652026 177.765964 47.347378 -6.576321 -0.045750 -0.837020 4.205765 0.394551 -0.375329 1.868515 0.182824 -0.375329 1.868515 0.182824 -0.282031 1.401275 0.138254 1.328849 13.428251 -0.708855 2.802128 -11.217263 -1.879113 0.623387 7.073489 8.086854 7.286238 -10.949356 76.907192 2.711143 -2.714183 -0.607442 -3.178579 -0.209920 1.470892 -0.812075 9.241780 -8.361864 -3.921588 -12.968050 -76.515699 -5.194489 -0.852849 -4.822421 4.507901 -1.335295 -1.147732 4.463850 10.528849 -0.604399 -1.496846 0.894346 -0.119632 -3.372119 -6.106597 1.960297 -0.000000 0.000000 -0.000000 2.917891 10.076054 1.941497 -0.427055 3.960868 0.302988 3.469971 -7.342231 -1.576501 0.000000 -0.000000 0.000000
48.813758 106.649187 177.704782 47.349837 -6.500516 -0.034870 -0.835513 4.174560 0.384767 -0.374549 1.854666 0.178411 -0.374549 1.854666 0.178411 -0.281429 1.390891 0.134933 1.334361 13.430114 -0.699582 2.808760 -11.213933 -1.863730 0.627955 7.038403 8.066830 7.279627 -10.949362 76.975677 2.711578 -2.698164 -0.614522 -3.193366 -0.207160 1.448508 -0.788928 9.206523 -8.314325 -3.918993 -12.892197 -76.529843 -5.201481 -0.838046 -4.826229 4.485950 -1.328981 -1.164701 4.471767 10.432257 -0.647380 -1.543486 0.907702 -0.124959 -3.336834 -6.103682 1.981636 0.000000 -0.000000 0.000000 2.912461 9.978145 1.905850 -0.440881 3.974917 0.288147 3.459971 -7.367372 -1.555867 0.000000 -0.000000 0.000000
48.823535 106.646781 177.645162 47.352906 -6.429740 -0.027266 -0.836623 4.147388 0.376324 -0.374947 1.842603 0.174623 -0.374947 1.842603 0.174623 -0.281712 1.381846 0.132087 1.340166 13.429449 -0.690925 2.816268 -11.215266 -1.849710 0.632723 7.004980 8.049134 7.275218 -10.951307 77.038204 2.711240 -2.684047 -0.620603 -3.206220 -0.204717 1.427591 -0.768574 9.174484 -8.269687 -3.914679 -12.824705 -76.545349 -5.206918 -0.821341 -4.828206 4.463901 -1.323725 -1.178022 4.481088 10.343152 -0.686287 -1.586381 0.916482 -0.129405 -3.306118 -6.098354 2.002767 -0.000000 0.000000 -0.000000 2.904574 9.886398 1.873236 -0.450545 3.987119 0.274373 3.449428 -7.388242 -1.535341 -0.000000 -0.000000 0.000000
48.833720 106.644649 177.586852 47.357617 -6.363896 -0.022267 -0.841307 4.126258 0.368837 -0.376946 1.833222 0.171303 -0.376946 1.833222 0.171303 -0.283200 1.374812 0.129597 1.346618 13.423457 -0.683955 2.825839 -11.226421 -1.839311 0.637100 6.971565 8.034119 7.275753 -10.956384 77.093223 2.711842 -2.674290 -0.624396 -3.215715 -0.203123 1.408345 -0.751294 9.145077 -8.227330 -3.904131 -12.768626 -76.564459 -5.211205 -0.799339 -4.827746 4.439403 -1.322796 -1.184316 4.496043 10.263111 -0.721081 -1.627665 0.916318 -0.133161 -3.282383 -6.088506 2.024408 0.000000 0.000000 0.000000 2.889832 9.800935 1.842212 -0.451899 3.997053 0.261391 3.436961 -7.404684 -1.515194 0.000000 0.000000 0.000000
48.844322 106.642949 177.530104 47.362924 -6.303081 -0.020540 -0.848609 4.109158 0.362704 -0.380123 1.825627 0.168613 -0.380123 1.825627 0.168613 -0.285572 1.369116 0.127585 1.353360 13.414939 -0.677603 2.836281 -11.242236 -1.830279 0.641671 6.939807 8.021440 7.278502 -10.963390 77.142286 2.711679 -2.666438 -0.627194 -3.223267 -0.201844 1.390560 -0.736782 9.118912 -8.187857 -3.891846 -12.720905 -76.584955 -5.213934 -0.775437 -4.825447 4.414812 -1.322928 -1.186957 4.512368 10.190558 -0.751821 -1.665213 0.911577 -0.136017 -3.263213 -6.076235 2.045843 0.000000 0.000000 -0.000000 2.872614 9.721629 1.814242 -0.449092 4.005136 0.249485 3.423966 -7.416854 -1.495163 0.000000 0.000000 -0.000000
48.855528 106.641717 177.474691 47.369349 -6.245515 -0.020846 -0.856828 4.091467 0.356806 -0.383710 1.817769 0.166034 -0.383710 1.817769 0.166034 -0.288252 1.363223 0.125657 1.358465 13.409745 -0.668604 2.842456 -11.252011 -1.815470 0.645767 6.910442 8.010846 7.274342 -10.968792 77.191210 2.706898 -2.653037 -0.631191 -3.231414 -0.199967 1.374248 -0.725093 9.095225 -8.150073 -3.887678 -12.674331 -76.601965 -5.213955 -0.754379 -4.823413 4.393870 -1.315397 -1.192704 4.519093 10.120851 -0.781731 -1.697682 0.908872 -0.138680 -3.241730 -6.064696 2.066718 0.000000 -0.000000 0.000000 2.856563 9.646789 1.788270 -0.448490 4.011273 0.239038 3.412389 -7.426802 -1.475162 0.000000 0.000000 0.000000
48.867179 106.641122 177.420585 47.378067 -6.190348 -0.023491 -0.865490 4.071342 0.350778 -0.387491 1.808829 0.163397 -0.387491 1.808829 0.163397 -0.291078 1.356519 0.123685 1.361027 13.410137 -0.654108 2.841434 -11.251659 -1.789055 0.648747 6.884363 8.002571 7.258681 -10.972001 77.243859 2.694436 -2.630002 -0.638907 -3.240736 -0.197399 1.359174 -0.718066 9.074091 -8.113394 -3.898967 -12.625565 -76.612123 -5.209927 -0.741285 -4.823996 4.379066 -1.294479 -1.205589 4.507206 10.051531 -0.811890 -1.723345 0.911576 -0.141569 -3.213186 -6.055214 2.086703 -0.000000 -0.000000 -0.000000 2.841966 9.575553 1.764406 -0.452669 4.015045 0.230632 3.403446 -7.434665 -1.455439 -0.000000 -0.000000 0.000000
48.879433 106.640994 177.367814 47.387896 -6.138429 -0.028165 -0.875070 4.050627 0.344986 -0.391683 1.799626 0.160870 -0.391683 1.799626 0.160870 -0.294212 1.349617 0.121797 1.361955 13.413858 -0.636963 2.836154 -11.245254 -1.756863 0.651250 6.860676 7.996383 7.236111 -10.973569 77.296364 2.677348 -2.601426 -0.647835 -3.250653 -0.194237 1.345572 -0.713867 9.055444 -8.078396 -3.918348 -12.577965 -76.618842 -5.203189 -0.731032 -4.824862 4.367887 -1.265887 -1.221568 4.485725 9.985036 -0.841140 -1.743925 0.916307 -0.144266 -3.182329 -6.046466 2.106127 0.000000 0.000000 -0.000000 2.828521 9.508789 1.742521 -0.459055 4.016876 0.223683 3.395928 -7.440309 -1.435749 0.000000 0.000000 -0.000000
48.892956 106.640855 177.316237 47.395831 -6.090520 -0.032720 -0.885290 4.030228 0.339401 -0.396161 1.790563 0.158441 -0.396161 1.790563 0.158441 -0.297561 1.342820 0.119982 1.362044 13.419975 -0.622449 2.830282 -11.234338 -1.729239 0.654519 6.837434 7.991331 7.211292 -10.971683 77.342941 2.660959 -2.572123 -0.652619 -3.261961 -0.189855 1.334155 -0.707051 9.038307 -8.045622 -3.933624 -12.534371 -76.627404 -5.196619 -0.713002 -4.821086 4.356575 -1.238057 -1.235296 4.470721 9.924067 -0.869374 -1.763257 0.919546 -0.146220 -3.156530 -6.037632 2.125632 -0.000000 -0.000000 0.000000 2.818999 9.447392 1.721172 -0.466290 4.017939 0.216820 3.388144 -7.445373 -1.415265 0.000000 0.000000 0.000000
48.908137 106.640634 177.266116 47.401015 -6.046437 -0.036265 -0.896396 4.009310 0.333744 -0.401032 1.781269 0.155985 -0.401032 1.781269 0.155985 -0.301205 1.335850 0.118149 1.361077 13.429509 -0.612762 2.824271 -11.216959 -1.710224 0.658601 6.812982 7.987245 7.184450 -10.963285 77.381064 2.646604 -2.543081 -0.649604 -3.276888 -0.182326 1.327314 -0.694852 9.022423 -8.015389 -3.938338 -12.495813 -76.640613 -5.190728 -0.676126 -4.808544 4.343797 -1.212659 -1.244893 4.468745 9.869736 -0.896648 -1.782530 0.919143 -0.146921 -3.139289 -6.027846 2.145631 0.000000 -0.000000 0.000000 2.816540 9.391302 1.700276 -0.475281 4.018630 0.209191 3.378829 -7.450093 -1.393534 0.000000 0.000000 -0.000000
48.924587 106.640403 177.217189 47.404306 -6.006366 -0.039697 -0.908140 3.988707 0.328296 -0.406189 1.772114 0.153628 -0.406189 1.772114 0.153628 -0.305063 1.328984 0.116390 1.359269 13.441440 -0.605711 2.817668 -11.195073 -1.695788 0.663450 6.788976 7.984300 7.155374 -10.951434 77.413238 2.632954 -2.513305 -0.642446 -3.293207 -0.173574 1.322653 -0.680036 9.008044 -7.987379 -3.938947 -12.461255 -76.655644 -5.184981 -0.631479 -4.791349 4.330892 -1.188034 -1.252246 4.473235 9.820940 -0.922950 -1.800559 0.917249 -0.146875 -3.127106 -6.017965 2.165707 0.000000 0.000000 0.000000 2.817998 9.340582 1.679895 -0.485122 4.018554 0.201648 3.369250 -7.454231 -1.371011 0.000000 0.000000 0.000000
48.941807 106.639901 177.168522 47.405278 -5.971623 -0.043556 -0.919505 3.971828 0.323869 -0.411190 1.764613 0.151727 -0.411190 1.764613 0.151727 -0.308806 1.323359 0.114974 1.358051 13.451774 -0.599994 2.812767 -11.176092 -1.684165 0.670171 6.768429 7.982052 7.128067 -10.943514 77.441244 2.621330 -2.484628 -0.636733 -3.305035 -0.168743 1.313719 -0.665447 8.994952 -7.961189 -3.942640 -12.430430 -76.669321 -5.180699 -0.601661 -4.776919 4.318134 -1.167626 -1.257674 4.480590 9.777061 -0.948112 -1.817612 0.916805 -0.147054 -3.116850 -6.009752 2.185251 0.000000 -0.000000 -0.000000 2.816726 9.296312 1.658818 -0.491733 4.017702 0.195379 3.361514 -7.458717 -1.348229 0.000000 0.000000 0.000000
48.959728 106.638878 177.119569 47.403817 -5.943518 -0.048201 -0.930429 3.960992 0.321071 -0.416012 1.759795 0.150556 -0.416012 1.759795 0.150556 -0.312418 1.319745 0.114106 1.357096 13.458271 -0.595441 2.808943 -11.164195 -1.674969 0.680074 6.754005 7.979893 7.104591 -10.944199 77.464845 2.614308 -2.456170 -0.634254 -3.307908 -0.172435 1.295964 -0.652099 8.983288 -7.937183 -3.953960 -12.404458 -76.680452 -5.178332 -0.602808 -4.768203 4.305342 -1.153999 -1.259994 4.491046 9.738558 -0.971667 -1.834734 0.919185 -0.147935 -3.108300 -6.003942 2.204228 0.000000 -0.000000 -0.000000 2.808547 9.259966 1.636172 -0.492492 4.015534 0.191356 3.356744 -7.463873 -1.325304 0.000000 0.000000 0.000000
